# xmcd
#
# Track frame offsets: 
#        150
#        18786
#        37083
#        59360
#        74606
#        91647
#        113551
#        124013
#        142131
#        155685
#        169302
#        184630
#        202653
#        220451
#        234826
#
# Disc length: 3369 seconds
#
# Revision: 4
# Processed by: cddbd v1.4PL0 Copyright (c) Steve Scherf et al.
# Submitted via: ExactAudioCopy v0.95a3
#
DISCID=cd0d270f
DTITLE=Various Artist - Christmas Time
DYEAR=2001
DGENRE=New Age
TTITLE0=John Adomey/Angels We Have Head On High
TTITLE1=Stuard Hoffman/What Child Is This
TTITLE2=Manuel Iman/The Little Drummer Boy
TTITLE3=Ron Clearfield/Christmas Lullaby
TTITLE4=Michael Whalen/Hark!The Herald Angels Sing
TTITLE5=Nigel Holton/God Rest Ye Merry Gentlemen
TTITLE6=Manuel Lman/Campanilleros
TTITLE7=Eduardo Del Signore/We three Kings
TTITLE8=Kim O'keary/O Come all Ye Faithful
TTITLE9=John Serrie/The Holly And The Ivy
TTITLE10=John Adomey/The First Noel
TTITLE11=Nigel Holton/Coventry Carol
TTITLE12=Geoff Bridgford/Happy Christmas
TTITLE13=Ron Clearfield/O Come,O Come Emmanuel
TTITLE14=John Mills/Away In A Manger
EXTD=YEAR: 2001
EXTT0=
EXTT1=
EXTT2=
EXTT3=
EXTT4=
EXTT5=
EXTT6=
EXTT7=
EXTT8=
EXTT9=
EXTT10=
EXTT11=
EXTT12=
EXTT13=
EXTT14=
PLAYORDER=
